<svg width="51" height="51" viewBox="0 0 51 51" fill="none" xmlns="http://www.w3.org/2000/svg">
<g id="Group 30 Copy 9">
<g id="noun_users_847316 2">
<g id="noun_users_847316">
<path id="Path" d="M32.35 17.2C30.8367 17.2 29.6 18.4367 29.6 19.95C29.6 21.4634 30.8367 22.7 32.35 22.7C33.8634 22.7 35.1 21.4634 35.1 19.95C35.1 18.4367 33.8634 17.2 32.35 17.2Z" stroke="white" stroke-width="1.4"/>
<path id="Path_2" d="M22.3895 15.6492C20.2693 15.6492 18.5395 17.379 18.5395 19.4992C18.5395 21.6194 20.2693 23.3492 22.3895 23.3492C24.5097 23.3492 26.2395 21.6194 26.2395 19.4992C26.2395 17.379 24.5097 15.6492 22.3895 15.6492Z" stroke="white" stroke-width="1.6"/>
<path id="Path Copy 27" d="M36.2942 26.436C37.4819 27.2616 38.1275 28.3316 38.1275 29.4179V32.466C38.1275 33.0183 37.6798 33.466 37.1275 33.466H24.9275V29.4179C24.9275 28.3316 25.5732 27.2616 26.7609 26.436C27.9485 25.6104 29.6414 25.0806 31.5275 25.0806C33.4136 25.0806 35.1065 25.6104 36.2942 26.436Z" stroke="white" stroke-width="1.4"/>
<path id="Path_3" d="M29.2467 27.6378C30.9443 28.6354 31.8672 29.9284 31.8672 31.2409V35.1324C31.8672 35.6847 31.4195 36.1324 30.8672 36.1324H14C13.4477 36.1324 13 35.6847 13 35.1324V31.2409C13 29.9284 13.9228 28.6354 15.6204 27.6378C17.318 26.6402 19.7377 26 22.4336 26C25.1294 26 27.5491 26.6402 29.2467 27.6378Z" fill="#7512FF" stroke="white" stroke-width="1.6"/>
<path id="Path 4" fill-rule="evenodd" clip-rule="evenodd" d="M29.1073 26.6412C29.1073 26.6412 28.4904 26.3725 27.925 26.1028C27.5245 25.9119 26.5013 25.6962 26.5013 25.6962L28.4714 24.6968L30.8289 26L29.1073 26.6412Z" fill="#6F5CEA"/>
<rect id="Rectangle" x="32.667" y="32.4364" width="1.39757" height="2" fill="#6F5CEA"/>
</g>
</g>
</g>
</svg>
