<svg width="51" height="51" viewBox="0 0 51 51" fill="none" xmlns="http://www.w3.org/2000/svg">
<g id="Group 30 Copy 10">
<g id="Combined Shape">
<mask id="path-1-inside-1_0_373" fill="white">
<path fill-rule="evenodd" clip-rule="evenodd" d="M34.5 15.5H32.5V35.5H34.5V15.5ZM31.9881 14C31.4424 14 31 14.4424 31 14.9881V36.0119C31 36.5576 31.4424 37 31.9881 37H35.0119C35.5576 37 36 36.5576 36 36.0119V14.9881C36 14.4424 35.5576 14 35.0119 14H31.9881ZM27.0119 19.5H23.9881C23.7185 19.5 23.5 19.7185 23.5 19.9881V36.0119C23.5 36.2815 23.7185 36.5 23.9881 36.5H27.0119C27.2815 36.5 27.5 36.2815 27.5 36.0119V19.9881C27.5 19.7185 27.2815 19.5 27.0119 19.5ZM23.9881 19C23.4424 19 23 19.4424 23 19.9881V36.0119C23 36.5576 23.4424 37 23.9881 37H27.0119C27.5576 37 28 36.5576 28 36.0119V19.9881C28 19.4424 27.5576 19 27.0119 19H23.9881ZM15.9881 25.5H19.0119C19.2815 25.5 19.5 25.7185 19.5 25.9881V36.0119C19.5 36.2815 19.2815 36.5 19.0119 36.5H15.9881C15.7185 36.5 15.5 36.2815 15.5 36.0119V25.9881C15.5 25.7185 15.7185 25.5 15.9881 25.5ZM15 25.9881C15 25.4424 15.4424 25 15.9881 25H19.0119C19.5576 25 20 25.4424 20 25.9881V36.0119C20 36.5576 19.5576 37 19.0119 37H15.9881C15.4424 37 15 36.5576 15 36.0119V25.9881Z"/>
</mask>
<path d="M32.5 15.5V13.8H30.8V15.5H32.5ZM34.5 15.5H36.2V13.8H34.5V15.5ZM32.5 35.5H30.8V37.2H32.5V35.5ZM34.5 35.5V37.2H36.2V35.5H34.5ZM32.5 17.2H34.5V13.8H32.5V17.2ZM34.2 35.5V15.5H30.8V35.5H34.2ZM34.5 33.8H32.5V37.2H34.5V33.8ZM32.8 15.5V35.5H36.2V15.5H32.8ZM32.7 14.9881C32.7 15.3813 32.3813 15.7 31.9881 15.7V12.3C30.5035 12.3 29.3 13.5035 29.3 14.9881H32.7ZM32.7 36.0119V14.9881H29.3V36.0119H32.7ZM31.9881 35.3C32.3813 35.3 32.7 35.6187 32.7 36.0119H29.3C29.3 37.4965 30.5035 38.7 31.9881 38.7V35.3ZM35.0119 35.3H31.9881V38.7H35.0119V35.3ZM34.3 36.0119C34.3 35.6187 34.6187 35.3 35.0119 35.3V38.7C36.4965 38.7 37.7 37.4965 37.7 36.0119H34.3ZM34.3 14.9881V36.0119H37.7V14.9881H34.3ZM35.0119 15.7C34.6187 15.7 34.3 15.3813 34.3 14.9881H37.7C37.7 13.5035 36.4965 12.3 35.0119 12.3V15.7ZM31.9881 15.7H35.0119V12.3H31.9881V15.7ZM23.9881 21.2H27.0119V17.8H23.9881V21.2ZM25.2 19.9881C25.2 20.6574 24.6574 21.2 23.9881 21.2V17.8C22.7797 17.8 21.8 18.7797 21.8 19.9881H25.2ZM25.2 36.0119V19.9881H21.8V36.0119H25.2ZM23.9881 34.8C24.6574 34.8 25.2 35.3426 25.2 36.0119H21.8C21.8 37.2203 22.7797 38.2 23.9881 38.2V34.8ZM27.0119 34.8H23.9881V38.2H27.0119V34.8ZM25.8 36.0119C25.8 35.3426 26.3426 34.8 27.0119 34.8V38.2C28.2203 38.2 29.2 37.2203 29.2 36.0119H25.8ZM25.8 19.9881V36.0119H29.2V19.9881H25.8ZM27.0119 21.2C26.3426 21.2 25.8 20.6574 25.8 19.9881H29.2C29.2 18.7797 28.2203 17.8 27.0119 17.8V21.2ZM24.7 19.9881C24.7 20.3813 24.3813 20.7 23.9881 20.7V17.3C22.5035 17.3 21.3 18.5035 21.3 19.9881H24.7ZM24.7 36.0119V19.9881H21.3V36.0119H24.7ZM23.9881 35.3C24.3813 35.3 24.7 35.6187 24.7 36.0119H21.3C21.3 37.4965 22.5035 38.7 23.9881 38.7V35.3ZM27.0119 35.3H23.9881V38.7H27.0119V35.3ZM26.3 36.0119C26.3 35.6187 26.6187 35.3 27.0119 35.3V38.7C28.4965 38.7 29.7 37.4965 29.7 36.0119H26.3ZM26.3 19.9881V36.0119H29.7V19.9881H26.3ZM27.0119 20.7C26.6187 20.7 26.3 20.3813 26.3 19.9881H29.7C29.7 18.5035 28.4965 17.3 27.0119 17.3V20.7ZM23.9881 20.7H27.0119V17.3H23.9881V20.7ZM19.0119 23.8H15.9881V27.2H19.0119V23.8ZM21.2 25.9881C21.2 24.7797 20.2203 23.8 19.0119 23.8V27.2C18.3426 27.2 17.8 26.6574 17.8 25.9881H21.2ZM21.2 36.0119V25.9881H17.8V36.0119H21.2ZM19.0119 38.2C20.2203 38.2 21.2 37.2203 21.2 36.0119H17.8C17.8 35.3426 18.3426 34.8 19.0119 34.8V38.2ZM15.9881 38.2H19.0119V34.8H15.9881V38.2ZM13.8 36.0119C13.8 37.2203 14.7797 38.2 15.9881 38.2V34.8C16.6574 34.8 17.2 35.3426 17.2 36.0119H13.8ZM13.8 25.9881V36.0119H17.2V25.9881H13.8ZM15.9881 23.8C14.7797 23.8 13.8 24.7797 13.8 25.9881H17.2C17.2 26.6574 16.6574 27.2 15.9881 27.2V23.8ZM15.9881 23.3C14.5035 23.3 13.3 24.5035 13.3 25.9881H16.7C16.7 26.3813 16.3813 26.7 15.9881 26.7V23.3ZM19.0119 23.3H15.9881V26.7H19.0119V23.3ZM21.7 25.9881C21.7 24.5035 20.4965 23.3 19.0119 23.3V26.7C18.6187 26.7 18.3 26.3813 18.3 25.9881H21.7ZM21.7 36.0119V25.9881H18.3V36.0119H21.7ZM19.0119 38.7C20.4965 38.7 21.7 37.4965 21.7 36.0119H18.3C18.3 35.6187 18.6187 35.3 19.0119 35.3V38.7ZM15.9881 38.7H19.0119V35.3H15.9881V38.7ZM13.3 36.0119C13.3 37.4965 14.5035 38.7 15.9881 38.7V35.3C16.3813 35.3 16.7 35.6187 16.7 36.0119H13.3ZM13.3 25.9881V36.0119H16.7V25.9881H13.3Z" fill="white" mask="url(#path-1-inside-1_0_373)"/>
</g>
</g>
</svg>
