<svg width="51" height="51" viewBox="0 0 51 51" fill="none" xmlns="http://www.w3.org/2000/svg">
<g id="Group 30 Copy 6">
<g id="Combined Shape">
<path fill-rule="evenodd" clip-rule="evenodd" d="M14.3176 25.3155C14.7041 25.9485 15.3859 26.3336 16.12 26.3335H24.6969V36.3334H20.244C19.7838 36.3334 19.4107 36.7064 19.4107 37.1667C19.4107 37.6269 19.7838 38 20.244 38H30.7928C31.253 38 31.6261 37.6269 31.6261 37.1667C31.6261 36.7064 31.253 36.3334 30.7928 36.3334H26.3399V26.3335H34.9168C35.6459 26.3208 36.3174 25.9288 36.6945 25.2958C37.0716 24.6627 37.1015 23.8775 36.7735 23.2168L32.6658 14.8086C32.122 13.6985 31.0043 12.9976 29.7822 13.0003H21.2546C20.0159 12.9832 18.8779 13.69 18.3299 14.8169L14.2222 23.2252C13.895 23.8917 13.9311 24.6825 14.3176 25.3155ZM19.8333 15.5586C20.1002 15.0103 20.6518 14.6643 21.2546 14.667H29.7822C30.3968 14.6513 30.9643 14.9993 31.2363 15.5586L35.344 23.9668C35.4182 24.1169 35.4103 24.2952 35.3232 24.4379C35.2362 24.5806 35.0823 24.6673 34.9168 24.6668H16.0871C15.9216 24.6673 15.7678 24.5806 15.6807 24.4379C15.5936 24.2952 15.5857 24.1169 15.6599 23.9668L19.8333 15.5586Z" fill="white"/>
<path d="M16.12 26.3335L16.12 26.0835L16.1199 26.0835L16.12 26.3335ZM14.3176 25.3155L14.531 25.1852L14.531 25.1852L14.3176 25.3155ZM24.6969 26.3335H24.9469V26.0835H24.6969V26.3335ZM24.6969 36.3334V36.5834H24.9469V36.3334H24.6969ZM26.3399 36.3334H26.0899V36.5834H26.3399V36.3334ZM26.3399 26.3335V26.0835H26.0899V26.3335H26.3399ZM34.9168 26.3335V26.5835L34.9212 26.5834L34.9168 26.3335ZM36.7735 23.2168L36.5489 23.3266L36.5496 23.328L36.7735 23.2168ZM32.6658 14.8086L32.8904 14.6989L32.8903 14.6986L32.6658 14.8086ZM29.7822 13.0003L29.7822 13.2503L29.7828 13.2503L29.7822 13.0003ZM21.2546 13.0003L21.2511 13.2503H21.2546V13.0003ZM18.3299 14.8169L18.5545 14.9267L18.5547 14.9263L18.3299 14.8169ZM14.2222 23.2252L14.4466 23.3353L14.4468 23.3349L14.2222 23.2252ZM21.2546 14.667L21.2535 14.917H21.2546V14.667ZM19.8333 15.5586L20.0573 15.6698L20.0581 15.668L19.8333 15.5586ZM29.7822 14.667V14.917L29.7886 14.9169L29.7822 14.667ZM31.2363 15.5586L31.0115 15.6679L31.0117 15.6683L31.2363 15.5586ZM35.344 23.9668L35.1194 24.0766L35.1199 24.0776L35.344 23.9668ZM34.9168 24.6668L34.9175 24.4168H34.9168V24.6668ZM16.0871 24.6668V24.4168L16.0864 24.4168L16.0871 24.6668ZM15.6807 24.4379L15.8941 24.3077L15.8941 24.3077L15.6807 24.4379ZM15.6599 23.9668L15.436 23.8557L15.4358 23.856L15.6599 23.9668ZM16.1199 26.0835C15.4741 26.0836 14.8726 25.7448 14.531 25.1852L14.1042 25.4458C14.5355 26.1522 15.2977 26.5836 16.12 26.5835L16.1199 26.0835ZM24.6969 26.0835H16.12V26.5835H24.6969V26.0835ZM24.9469 36.3334V26.3335H24.4469V36.3334H24.9469ZM20.244 36.5834H24.6969V36.0834H20.244V36.5834ZM19.6607 37.1667C19.6607 36.8445 19.9219 36.5834 20.244 36.5834V36.0834C19.6457 36.0834 19.1607 36.5684 19.1607 37.1667H19.6607ZM20.244 37.75C19.9219 37.75 19.6607 37.4888 19.6607 37.1667H19.1607C19.1607 37.765 19.6457 38.25 20.244 38.25V37.75ZM30.7928 37.75H20.244V38.25H30.7928V37.75ZM31.3761 37.1667C31.3761 37.4888 31.1149 37.75 30.7928 37.75V38.25C31.3911 38.25 31.8761 37.765 31.8761 37.1667H31.3761ZM30.7928 36.5834C31.1149 36.5834 31.3761 36.8445 31.3761 37.1667H31.8761C31.8761 36.5684 31.3911 36.0834 30.7928 36.0834V36.5834ZM26.3399 36.5834H30.7928V36.0834H26.3399V36.5834ZM26.0899 26.3335V36.3334H26.5899V26.3335H26.0899ZM34.9168 26.0835H26.3399V26.5835H34.9168V26.0835ZM36.4797 25.1678C36.1463 25.7275 35.5539 26.0723 34.9125 26.0835L34.9212 26.5834C35.7379 26.5692 36.4884 26.1301 36.9093 25.4237L36.4797 25.1678ZM36.5496 23.328C36.8398 23.9126 36.8133 24.6078 36.4797 25.1678L36.9093 25.4237C37.3299 24.7176 37.3631 23.8423 36.9974 23.1057L36.5496 23.328ZM32.4412 14.9184L36.5489 23.3266L36.9981 23.1071L32.8904 14.6989L32.4412 14.9184ZM29.7828 13.2503C30.9078 13.2478 31.9389 13.8931 32.4413 14.9186L32.8903 14.6986C32.305 13.5039 31.1007 12.7474 29.7817 12.7503L29.7828 13.2503ZM21.2546 13.2503H29.7822V12.7503H21.2546V13.2503ZM18.5547 14.9263C19.061 13.8852 20.1108 13.2345 21.2511 13.2503L21.2581 12.7503C19.921 12.7318 18.6948 13.4948 18.1051 14.7076L18.5547 14.9263ZM14.4468 23.3349L18.5545 14.9267L18.1053 14.7072L13.9976 23.1154L14.4468 23.3349ZM14.531 25.1852C14.1891 24.6253 14.1571 23.9252 14.4466 23.3353L13.9978 23.115C13.633 23.8582 13.6731 24.7397 14.1042 25.4458L14.531 25.1852ZM21.2557 14.417C20.5554 14.4138 19.9168 14.8158 19.6086 15.4492L20.0581 15.668C20.2836 15.2048 20.7482 14.9147 21.2535 14.9169L21.2557 14.417ZM29.7822 14.417H21.2546V14.917H29.7822V14.417ZM31.4612 15.4493C31.147 14.8032 30.4899 14.3989 29.7758 14.417L29.7886 14.9169C30.3037 14.9038 30.7817 15.1955 31.0115 15.6679L31.4612 15.4493ZM35.5687 23.8571L31.461 15.4489L31.0117 15.6683L35.1194 24.0766L35.5687 23.8571ZM35.5366 24.5681C35.6685 24.3521 35.6803 24.0828 35.5681 23.856L35.1199 24.0776C35.1562 24.1509 35.1522 24.2382 35.1099 24.3077L35.5366 24.5681ZM34.9162 24.9168C35.1701 24.9175 35.4046 24.7845 35.5366 24.5681L35.1099 24.3077C35.0677 24.3767 34.9945 24.417 34.9175 24.4168L34.9162 24.9168ZM16.0871 24.9168H34.9168V24.4168H16.0871V24.9168ZM15.4673 24.5681C15.5993 24.7845 15.8338 24.9175 16.0878 24.9168L16.0864 24.4168C16.0095 24.417 15.9362 24.3767 15.8941 24.3077L15.4673 24.5681ZM15.4358 23.856C15.3237 24.0828 15.3355 24.3521 15.4673 24.5681L15.8941 24.3077C15.8517 24.2382 15.8478 24.1509 15.884 24.0776L15.4358 23.856ZM19.6094 15.4475L15.436 23.8557L15.8838 24.078L20.0573 15.6698L19.6094 15.4475Z" fill="white"/>
</g>
</g>
</svg>
