<svg width="51" height="51" viewBox="0 0 51 51" fill="none" xmlns="http://www.w3.org/2000/svg">
<g id="Group 30 Copy 7">
<path id="Shape" d="M25.397 37.7296L26.1058 37.097L26.1058 37.097L25.397 37.7296ZM26.603 37.7296L25.8942 37.097L25.8942 37.097L26.603 37.7296ZM35 22.054L35.95 22.054L35.95 22.054L35 22.054ZM26 12.05C20.5073 12.05 16.05 16.5423 16.05 22.054H17.95C17.95 17.5809 21.5674 13.95 26 13.95V12.05ZM16.05 22.054C16.05 23.7909 16.6095 25.6603 17.3941 27.4454C18.1839 29.2422 19.2325 31.0215 20.2785 32.5967C22.3707 35.747 24.5034 38.1551 24.6883 38.3622L26.1058 37.097C25.9477 36.9199 23.8819 34.5881 21.8613 31.5455C20.851 30.0243 19.8646 28.344 19.1335 26.6808C18.3973 25.006 17.95 23.415 17.95 22.054H16.05ZM24.6883 38.3621C25.3885 39.1468 26.613 39.1451 27.3118 38.3621L25.8942 37.097C25.95 37.0345 26.0497 37.0342 26.1058 37.097L24.6883 38.3621ZM27.3117 38.3622C27.4966 38.1551 29.6293 35.747 31.7215 32.5967C32.7675 31.0215 33.8161 29.2422 34.6059 27.4454C35.3905 25.6603 35.95 23.7909 35.95 22.054H34.05C34.05 23.415 33.6027 25.006 32.8665 26.6808C32.1354 28.344 31.149 30.0243 30.1387 31.5455C28.1181 34.5881 26.0523 36.9199 25.8942 37.097L27.3117 38.3622ZM35.95 22.054C35.9499 16.5423 31.4926 12.05 26 12.05V13.95C30.4325 13.95 34.0499 17.5809 34.05 22.054L35.95 22.054ZM26 25.6593C24.0332 25.6593 22.4219 24.0465 22.4219 22.054H20.5219C20.5219 25.0851 22.9731 27.5593 26 27.5593V25.6593ZM22.4219 22.054C22.4219 20.0615 24.0332 18.4487 26 18.4487V16.5487C22.9732 16.5487 20.5219 19.0229 20.5219 22.054H22.4219ZM26 18.4487C27.9667 18.4487 29.578 20.0615 29.578 22.0541H31.478C31.478 19.023 29.0268 16.5487 26 16.5487V18.4487ZM29.578 22.0541C29.578 24.0466 27.9667 25.6593 26 25.6593V27.5593C29.0268 27.5593 31.478 25.0852 31.478 22.0541H29.578Z" fill="white"/>
</g>
</svg>
