<svg width="51" height="51" viewBox="0 0 51 51" fill="none" xmlns="http://www.w3.org/2000/svg">
<g id="Group 30 Copy 8">
<g id="noun_Security_1002240">
<g id="Shape">
<path fill-rule="evenodd" clip-rule="evenodd" d="M36.4513 18.8878C36.5918 25.6626 36.7571 34.9307 25.5218 38.8237C25.3755 38.8745 25.2163 38.8745 25.07 38.8237C13.8347 34.928 14 25.6626 14.1378 18.8878C14.1653 18.1577 14.1653 17.4551 14.1653 16.7801C14.1653 16.3997 14.4737 16.0913 14.8541 16.0913C19.0088 16.0913 22.1716 14.8929 24.8138 12.3251C25.0813 12.0644 25.5078 12.0644 25.7753 12.3251C28.4175 14.8956 31.5803 16.0913 35.735 16.0913C36.1154 16.0913 36.4238 16.3997 36.4238 16.7801C36.4238 17.4159 36.436 18.0688 36.4489 18.7596L36.4513 18.8878ZM15.5315 18.0478C15.5248 18.3336 15.5181 18.6238 15.5181 18.9208C15.3776 25.5689 15.2343 33.8314 25.2959 37.4461C35.352 33.8342 35.2033 25.5716 35.0765 18.9236C35.0745 18.8288 35.0723 18.7346 35.0701 18.6409C35.0608 18.2393 35.0517 17.8482 35.0517 17.4661C31.0816 17.3504 27.9601 16.1575 25.2959 13.7688C22.6317 16.1575 19.5102 17.3449 15.5429 17.4634C15.5406 17.6566 15.5361 17.8511 15.5315 18.0478Z" fill="white"/>
<path d="M25.5218 38.8237L25.4073 38.493L25.407 38.493L25.5218 38.8237ZM36.4513 18.8878L36.1014 18.8943L36.1014 18.895L36.4513 18.8878ZM25.07 38.8237L25.1848 38.493L25.1847 38.493L25.07 38.8237ZM14.1378 18.8878L13.788 18.8746L13.7878 18.8806L14.1378 18.8878ZM24.8138 12.3251L25.0577 12.5761L25.0581 12.5757L24.8138 12.3251ZM25.7753 12.3251L25.531 12.5757L25.5312 12.576L25.7753 12.3251ZM36.4489 18.7596L36.7989 18.753L36.7989 18.753L36.4489 18.7596ZM15.5181 18.9208L15.8681 18.9282V18.9208H15.5181ZM15.5315 18.0478L15.8814 18.056L15.8814 18.056L15.5315 18.0478ZM25.2959 37.4461L25.1776 37.7755L25.2959 37.818L25.4142 37.7755L25.2959 37.4461ZM35.0765 18.9236L35.4265 18.9169L35.4264 18.9159L35.0765 18.9236ZM35.0701 18.6409L35.42 18.6328L35.42 18.6328L35.0701 18.6409ZM35.0517 17.4661H35.4017V17.1262L35.0619 17.1163L35.0517 17.4661ZM25.2959 13.7688L25.5296 13.5082L25.2959 13.2987L25.0623 13.5082L25.2959 13.7688ZM15.5429 17.4634L15.5324 17.1135L15.1968 17.1236L15.1929 17.4593L15.5429 17.4634ZM25.6364 39.1544C31.3516 37.1741 34.1986 33.8079 35.5809 30.0575C36.953 26.335 36.8713 22.2575 36.8013 18.8805L36.1014 18.895C36.1719 22.2928 36.2431 26.2368 34.9241 29.8154C33.6154 33.3659 30.9274 36.5803 25.4073 38.493L25.6364 39.1544ZM24.9552 39.1543C25.1759 39.2309 25.416 39.2309 25.6366 39.1543L25.407 38.493C25.3351 38.518 25.2568 38.518 25.1848 38.493L24.9552 39.1543ZM13.7878 18.8806C13.7192 22.2576 13.6382 26.3343 15.0106 30.0565C16.3933 33.8065 19.2402 37.1727 24.9553 39.1544L25.1847 38.493C19.6645 36.5789 16.9764 33.3646 15.6674 29.8143C14.348 26.2361 14.4186 22.2927 14.4877 18.8949L13.7878 18.8806ZM13.8153 16.7801C13.8153 17.4559 13.8153 18.1521 13.788 18.8746L14.4875 18.901C14.5153 18.1632 14.5153 17.4543 14.5153 16.7801H13.8153ZM14.8541 15.7413C14.2804 15.7413 13.8153 16.2064 13.8153 16.7801H14.5153C14.5153 16.593 14.667 16.4413 14.8541 16.4413V15.7413ZM24.5699 12.0741C22.0014 14.5702 18.9301 15.7413 14.8541 15.7413V16.4413C19.0875 16.4413 22.3419 15.2155 25.0577 12.5761L24.5699 12.0741ZM26.0196 12.0745C25.6162 11.6813 24.9729 11.6813 24.5695 12.0745L25.0581 12.5757C25.1896 12.4475 25.3994 12.4475 25.531 12.5757L26.0196 12.0745ZM35.735 15.7413C31.6589 15.7413 28.5877 14.5729 26.0194 12.0742L25.5312 12.576C28.2472 15.2183 31.5018 16.4413 35.735 16.4413V15.7413ZM36.7738 16.7801C36.7738 16.2064 36.3087 15.7413 35.735 15.7413V16.4413C35.9221 16.4413 36.0738 16.593 36.0738 16.7801H36.7738ZM36.7989 18.753C36.7859 18.0616 36.7738 17.412 36.7738 16.7801H36.0738C36.0738 17.4198 36.0861 18.076 36.099 18.7661L36.7989 18.753ZM36.8013 18.8812L36.7989 18.753L36.099 18.7661L36.1014 18.8943L36.8013 18.8812ZM15.8681 18.9208C15.8681 18.6285 15.8747 18.3423 15.8814 18.056L15.1816 18.0396C15.1749 18.3248 15.1681 18.6191 15.1681 18.9208H15.8681ZM25.4143 37.1167C20.4796 35.3439 18.0788 32.4507 16.9105 29.2025C15.7318 25.9252 15.7975 22.2638 15.868 18.9282L15.1681 18.9134C15.0981 22.2259 15.0219 26.0198 16.2518 29.4394C17.4923 32.8883 20.0506 35.9336 25.1776 37.7755L25.4143 37.1167ZM34.7266 18.9302C34.7902 22.2663 34.8539 25.9277 33.6754 29.205C32.5075 32.4529 30.1093 35.3454 25.1776 37.1167L25.4142 37.7755C30.5386 35.935 33.0941 32.8902 34.3342 29.4418C35.5636 26.0228 35.4896 22.2289 35.4265 18.9169L34.7266 18.9302ZM34.7202 18.649C34.7224 18.7427 34.7245 18.8367 34.7266 18.9313L35.4264 18.9159C35.4244 18.8208 35.4222 18.7264 35.42 18.6328L34.7202 18.649ZM34.7017 17.4661C34.7017 17.8529 34.7109 18.2482 34.7202 18.649L35.42 18.6328C35.4107 18.2304 35.4017 17.8434 35.4017 17.4661H34.7017ZM25.0623 14.0294C27.7942 16.4788 30.9974 17.6981 35.0415 17.816L35.0619 17.1163C31.1658 17.0027 28.126 15.8361 25.5296 13.5082L25.0623 14.0294ZM15.5533 17.8132C19.5941 17.6926 22.7974 16.479 25.5296 14.0294L25.0623 13.5082C22.4661 15.8359 19.4263 16.9973 15.5324 17.1135L15.5533 17.8132ZM15.8814 18.056C15.886 17.8596 15.8906 17.663 15.8928 17.4674L15.1929 17.4593C15.1907 17.6501 15.1862 17.8426 15.1816 18.0396L15.8814 18.056Z" fill="white"/>
</g>
<g id="Combined Shape">
<path fill-rule="evenodd" clip-rule="evenodd" d="M28.1309 27.919C28.3426 28.4888 28.0529 29.1224 27.4835 29.3351C26.0788 29.8848 24.5185 29.8848 23.1139 29.3351H23.1111C22.5432 29.1224 22.2538 28.4908 22.4637 27.9217L23.3233 25.5C22.9313 25.0383 22.7156 24.4526 22.7144 23.8469C22.7117 22.4969 23.7497 21.3728 25.0956 21.2681C26.4415 21.1633 27.6409 22.1133 27.8471 23.4475C27.9613 24.1832 27.7502 24.9322 27.2686 25.5L28.1309 27.919ZM24.1614 23.4357C23.9931 23.9199 24.1499 24.4575 24.552 24.7754H24.5493C24.7792 24.9584 24.8677 25.2671 24.7697 25.5441L23.8495 28.1339C24.7897 28.4443 25.8049 28.4443 26.7451 28.1339L25.8249 25.5441C25.7269 25.2671 25.8154 24.9584 26.0453 24.7754C26.4474 24.4575 26.6042 23.9199 26.4359 23.4357C26.2677 22.9515 25.8113 22.6269 25.2987 22.6269C24.7861 22.6269 24.3297 22.9515 24.1614 23.4357Z" fill="white"/>
<path d="M27.4835 29.3351L27.466 29.2883L27.4653 29.2885L27.4835 29.3351ZM28.1309 27.919L28.0838 27.9358L28.0841 27.9364L28.1309 27.919ZM23.1139 29.3351L23.1321 29.2885L23.1233 29.2851H23.1139V29.3351ZM23.1111 29.3351L23.0936 29.3819L23.1021 29.3851H23.1111V29.3351ZM22.4637 27.9217L22.5106 27.939L22.5108 27.9385L22.4637 27.9217ZM23.3233 25.5L23.3704 25.5167L23.38 25.4896L23.3614 25.4677L23.3233 25.5ZM22.7144 23.8469L22.6644 23.847L22.6644 23.847L22.7144 23.8469ZM25.0956 21.2681L25.0917 21.2182L25.0956 21.2681ZM27.8471 23.4475L27.7977 23.4551L27.7977 23.4551L27.8471 23.4475ZM27.2686 25.5L27.2304 25.4677L27.2118 25.4896L27.2215 25.5168L27.2686 25.5ZM24.552 24.7754V24.8254H24.6959L24.5831 24.7362L24.552 24.7754ZM24.1614 23.4357L24.1142 23.4193L24.1142 23.4193L24.1614 23.4357ZM24.5493 24.7754V24.7254H24.4062L24.5182 24.8145L24.5493 24.7754ZM24.7697 25.5441L24.8168 25.5608L24.8168 25.5608L24.7697 25.5441ZM23.8495 28.1339L23.8024 28.1171L23.7853 28.1653L23.8338 28.1814L23.8495 28.1339ZM26.7451 28.1339L26.7608 28.1814L26.8093 28.1653L26.7922 28.1171L26.7451 28.1339ZM25.8249 25.5441L25.7778 25.5608L25.7778 25.5608L25.8249 25.5441ZM26.0453 24.7754L26.0143 24.7362L26.0142 24.7363L26.0453 24.7754ZM26.4359 23.4357L26.4832 23.4193L26.4832 23.4193L26.4359 23.4357ZM27.501 29.3819C28.0962 29.1596 28.3991 28.4972 28.1778 27.9016L28.0841 27.9364C28.2861 28.4804 28.0096 29.0852 27.466 29.2883L27.501 29.3819ZM23.0957 29.3817C24.512 29.936 26.0853 29.936 27.5017 29.3817L27.4653 29.2885C26.0723 29.8337 24.5251 29.8337 23.1321 29.2885L23.0957 29.3817ZM23.1111 29.3851H23.1139V29.2851H23.1111V29.3851ZM22.4168 27.9044C22.1974 28.4993 22.4999 29.1596 23.0936 29.3819L23.1287 29.2883C22.5865 29.0852 22.3103 28.4822 22.5106 27.939L22.4168 27.9044ZM23.2762 25.4833L22.4166 27.905L22.5108 27.9385L23.3704 25.5167L23.2762 25.4833ZM22.6644 23.847C22.6656 24.4645 22.8855 25.0616 23.2852 25.5324L23.3614 25.4677C22.9771 25.0149 22.7656 24.4407 22.7644 23.8468L22.6644 23.847ZM25.0917 21.2182C23.7197 21.325 22.6617 22.4709 22.6644 23.847L22.7644 23.8468C22.7618 22.523 23.7796 21.4207 25.0995 21.3179L25.0917 21.2182ZM27.8966 23.4398C27.6863 22.0798 26.4637 21.1114 25.0917 21.2182L25.0995 21.3179C26.4194 21.2152 27.5955 22.1468 27.7977 23.4551L27.8966 23.4398ZM27.3067 25.5324C27.7977 24.9535 28.013 24.1899 27.8966 23.4398L27.7977 23.4551C27.9097 24.1765 27.7027 24.9109 27.2304 25.4677L27.3067 25.5324ZM28.178 27.9022L27.3157 25.4832L27.2215 25.5168L28.0838 27.9358L28.178 27.9022ZM24.5831 24.7362C24.1976 24.4315 24.0474 23.9162 24.2086 23.4521L24.1142 23.4193C23.9389 23.9236 24.1022 24.4836 24.521 24.8146L24.5831 24.7362ZM24.5493 24.8254H24.552V24.7254H24.5493V24.8254ZM24.8168 25.5608C24.922 25.2637 24.827 24.9326 24.5804 24.7363L24.5182 24.8145C24.7314 24.9842 24.8135 25.2705 24.7226 25.5274L24.8168 25.5608ZM23.8966 28.1506L24.8168 25.5608L24.7226 25.5273L23.8024 28.1171L23.8966 28.1506ZM26.7294 28.0864C25.7994 28.3935 24.7952 28.3935 23.8652 28.0864L23.8338 28.1814C24.7842 28.4952 25.8104 28.4952 26.7608 28.1814L26.7294 28.0864ZM25.7778 25.5608L26.698 28.1506L26.7922 28.1171L25.872 25.5273L25.7778 25.5608ZM26.0142 24.7363C25.7676 24.9326 25.6726 25.2637 25.7778 25.5608L25.872 25.5274C25.7811 25.2705 25.8632 24.9842 26.0764 24.8145L26.0142 24.7363ZM26.3887 23.4521C26.55 23.9162 26.3997 24.4315 26.0143 24.7362L26.0763 24.8146C26.4952 24.4836 26.6584 23.9236 26.4832 23.4193L26.3887 23.4521ZM25.2987 22.6769C25.79 22.6769 26.2274 22.988 26.3887 23.4521L26.4832 23.4193C26.3079 22.915 25.8326 22.5769 25.2987 22.5769V22.6769ZM24.2086 23.4521C24.3699 22.988 24.8074 22.6769 25.2987 22.6769V22.5769C24.7648 22.5769 24.2894 22.915 24.1142 23.4193L24.2086 23.4521Z" fill="white"/>
</g>
</g>
</g>
</svg>
