<svg width="51" height="51" viewBox="0 0 51 51" fill="none" xmlns="http://www.w3.org/2000/svg">
<g id="Group 30 Copy 5">
<g id="mail">
<g id="logout">
<path id="Path" d="M38.0255 26.051C38.0306 26.0459 38.0306 26.0459 38.0357 26.0408C38.051 26.0204 38.0663 26.0051 38.0765 25.9847C38.0816 25.9796 38.0816 25.9745 38.0867 25.9694C38.0969 25.949 38.1122 25.9286 38.1224 25.9082C38.1224 25.9031 38.1276 25.898 38.1276 25.898C38.1378 25.8776 38.148 25.8571 38.1582 25.8316C38.1582 25.8265 38.1582 25.8265 38.1633 25.8214C38.1735 25.801 38.1786 25.7755 38.1888 25.75C38.1888 25.7449 38.1888 25.7398 38.1939 25.7398C38.199 25.7143 38.2092 25.6939 38.2092 25.6684C38.2092 25.6582 38.2092 25.6531 38.2143 25.6429C38.2194 25.6225 38.2194 25.602 38.2245 25.5816C38.2296 25.551 38.2296 25.5255 38.2296 25.4949C38.2296 25.4643 38.2296 25.4388 38.2245 25.4082C38.2245 25.3878 38.2194 25.3673 38.2143 25.3469C38.2143 25.3367 38.2143 25.3316 38.2092 25.3214C38.2041 25.2959 38.199 25.2755 38.1939 25.25C38.1939 25.2449 38.1939 25.2398 38.1888 25.2398C38.1837 25.2143 38.1735 25.1939 38.1633 25.1684C38.1633 25.1633 38.1633 25.1633 38.1582 25.1582C38.148 25.1378 38.1378 25.1122 38.1276 25.0918C38.1276 25.0867 38.1224 25.0816 38.1224 25.0816C38.1122 25.0612 38.102 25.0408 38.0867 25.0204C38.0816 25.0153 38.0816 25.0102 38.0765 25.0051C38.0612 24.9847 38.051 24.9643 38.0357 24.949C38.0306 24.9439 38.0306 24.9439 38.0255 24.9388C38.0051 24.9184 37.9898 24.8929 37.9643 24.8725L32.9184 19.8316C32.5765 19.4898 32.0204 19.4898 31.6786 19.8316C31.3367 20.1735 31.3367 20.7296 31.6786 21.0714L35.2296 24.6225H21.1122C20.6276 24.6225 20.2347 25.0153 20.2347 25.4949C20.2347 25.9796 20.6276 26.3725 21.1122 26.3725H35.2347L31.7092 29.898C31.3673 30.2398 31.3673 30.7959 31.7092 31.1378C31.8776 31.3061 32.102 31.3929 32.3265 31.3929C32.551 31.3929 32.7755 31.3061 32.9439 31.1378L37.9592 26.1225C37.9847 26.0918 38.0051 26.0714 38.0255 26.051Z" fill="white" stroke="white" stroke-width="0.3"/>
<path id="Path_2" d="M17.7806 14.75H24.3112C24.7959 14.75 25.1888 14.3571 25.1888 13.8776C25.1888 13.3929 24.7959 13 24.3112 13H17.7806C15.1633 13 13.0306 15.1327 13.0306 17.75V33.2449C13.0306 35.8622 15.1633 37.9949 17.7806 37.9949H24.2041C24.6888 37.9949 25.0816 37.602 25.0816 37.1224C25.0816 36.6378 24.6888 36.2449 24.2041 36.2449H17.7806C16.1275 36.2449 14.7806 34.898 14.7806 33.2449V17.75C14.7857 16.0918 16.1275 14.75 17.7806 14.75Z" fill="white" stroke="white" stroke-width="0.3"/>
</g>
</g>
</g>
</svg>
