<svg width="64" height="64" viewBox="0 0 64 64" fill="none" xmlns="http://www.w3.org/2000/svg">
<g id="noun_Home_1998078">
<g id="noun_Home_2976614">
<path id="Shape" fill-rule="evenodd" clip-rule="evenodd" d="M49.6566 28.2514L39.2602 17.804C35.5212 14.0653 29.4788 14.0653 25.7398 17.804L15.3434 28.2514C15.0085 28.5855 14.9079 29.0899 15.0888 29.5278C15.2697 29.9658 15.6962 30.2504 16.1681 30.2479H17.93V41.6371C17.9369 46.2529 21.6588 49.9931 26.2522 50H28.039C28.6829 49.9931 29.2012 49.4667 29.2011 48.8196V39.2261H35.7989V48.8196C35.7988 49.4667 36.3171 49.9931 36.961 50H38.7478C43.3412 49.9931 47.0631 46.2529 47.07 41.6371V30.2479H48.8319C49.3037 30.2504 49.7303 29.9658 49.9112 29.5278C50.0921 29.0899 49.9915 28.5855 49.6566 28.2514ZM27.3893 19.4615C28.744 18.0981 30.5827 17.332 32.5 17.332C34.4173 17.332 36.256 18.0981 37.6107 19.4615L46.0078 27.8998H18.9922L27.3893 19.4615ZM38.7478 47.6518C42.0507 47.6449 44.7264 44.9561 44.7333 41.6371V30.2479H20.2667V41.6371C20.2736 44.9561 22.9493 47.6449 26.2522 47.6518H26.8644V38.0458C26.8713 37.3988 27.3952 36.878 28.039 36.878H36.961C37.6048 36.878 38.1287 37.3988 38.1356 38.0458V47.6518H38.7478Z" fill="white"/>
</g>
</g>
</svg>
