<svg width="141" height="207" viewBox="0 0 141 207" fill="none" xmlns="http://www.w3.org/2000/svg">
<g id="character">
<g id="Oval" opacity="0.288272" filter="url(#filter0_f_0_619)">
<ellipse cx="98.5048" cy="199.98" rx="39.3165" ry="3.88311" fill="#FFA446"/>
</g>
<g id="girl">
<g id="Group 12">
<g id="Group">
<g id="Group_2">
<g id="Group_3">
<path id="Path" d="M84.1099 192.423L82.1746 176.665L90.653 178.047L91.7589 194.635L83.6491 192.884L84.1099 192.423Z" fill="#ECACA1"/>
<g id="Group_4">
<path id="Path_2" d="M93.0492 190.58C93.0492 190.58 86.2296 193.069 83.1884 188.645L68.259 196.386L94.8923 197.308L93.0492 190.58Z" fill="#FF234A"/>
<path id="Path_3" d="M68.1668 198.782L94.8001 199.796L94.8923 197.4L68.259 196.386L68.1668 198.782Z" fill="white"/>
</g>
</g>
<path id="Path_4" d="M76.8295 80.6372C76.8295 80.6372 73.1433 94.9215 75.355 135.839L78.6727 182.747H95.8138L90.9295 81.3745L76.8295 80.6372Z" fill="#6451C5"/>
</g>
<g id="Group_5">
<g id="Group_6">
<path id="Path_5" d="M125.304 183.945L116.181 170.859L123.461 166.343L132.492 180.535L125.304 184.59V183.945Z" fill="#ECACA1"/>
<g id="Group_7">
<path id="Path_6" d="M130.833 176.665C130.833 176.665 127.332 183.116 122.079 181.733L115.996 197.4L136.639 180.535L130.833 176.665Z" fill="#FF234A"/>
<path id="Path_7" d="M117.563 199.243L138.206 182.286L136.732 180.443L116.088 197.4L117.563 199.243Z" fill="white"/>
</g>
</g>
<g id="Group_8">
<path id="Path_8" d="M100.698 85.0608C100.698 85.0608 106.596 90.6823 106.412 106.81C106.228 122.937 111.296 139.71 111.296 139.71L92.7727 141.645C92.7727 141.645 82.2668 119.62 78.7648 86.4431L100.698 85.0608Z" fill="#6451C5"/>
<path id="Path_9" d="M107.057 131.692C107.057 131.692 128.622 153.718 134.981 169.384L118.024 178.047L92.957 141.737L107.057 131.692Z" fill="#6451C5"/>
<path id="Path_10" d="M94.2472 143.765C94.2472 143.765 90.1923 140.539 88.0727 131.692C86.0453 122.845 82.9119 107.731 82.9119 107.731L79.2256 103.123" stroke="#B2ACC7" stroke-width="0.55"/>
</g>
</g>
</g>
<g id="Group_9">
<g id="Group_10">
<circle id="Oval_2" cx="99.1316" cy="9.21568" r="8.57059" fill="#081669"/>
<circle id="Oval_3" cx="91.1139" cy="16.4961" r="7.09608" fill="#FF234A"/>
</g>
<path id="Path_11" d="M80.7001 34.8353L84.2943 45.7098L94.2472 41.6549L88.7178 25.3431L80.7001 34.8353Z" fill="#ECACA1"/>
<path id="Path_12" d="M82.8197 41.1941C82.7276 41.0098 84.6629 34.3745 84.6629 34.3745L80.5158 36.2176L82.8197 41.1941Z" fill="#ED9083"/>
<path id="Path_13" d="M77.6589 12.2569C77.6589 12.2569 72.4982 13.0863 72.2217 19.6294C72.2217 19.6294 72.0374 24.3294 71.9452 31.149C71.8531 34.7431 75.0786 37.6 78.5805 36.8627C80.7001 36.4019 83.0962 35.4804 85.2158 33.8216L88.1648 31.0569C95.1687 23.2235 88.7178 10.7823 78.3962 12.1647C78.2119 12.1647 77.9354 12.1647 77.6589 12.2569Z" fill="#ECACA1"/>
<path id="Path_14" d="M73.1433 25.6196L70.6551 28.2C70.1943 28.5686 70.2864 29.4902 70.7472 29.4902L73.0511 29.7667V25.6196H73.1433Z" fill="#ECACA1"/>
<g id="Group_11">
<path id="Path_15" d="M74.4335 21.3804C74.4335 21.3804 72.6825 21.1039 72.5904 21.8412C72.5904 21.8412 72.4982 22.3941 73.9727 22.5784C75.4472 22.7627 75.908 22.6706 76.0923 22.2098C76.2766 21.749 75.2629 21.4725 74.4335 21.3804Z" fill="#03041F"/>
<circle id="Oval_4" cx="74.0027" cy="25.7784" r="0.737287" transform="rotate(-10.7481 74.0027 25.7784)" fill="#03041F"/>
<path id="Path_16" d="M72.7502 31.4169C73.1189 31.7855 74.5012 31.6012 74.7777 30.8639" stroke="#1D0A05" stroke-width="0.585933" stroke-linecap="round" stroke-linejoin="round"/>
</g>
<path id="Path_17" d="M84.5708 23.8686C84.5708 23.8686 87.6119 8.1098 73.9727 14.4686C73.9727 14.4686 79.2257 5.80588 91.206 11.0588C93.6943 12.1647 96.2747 15.2059 96.8276 17.8784C97.5649 22.2098 95.1688 25.9882 91.2982 32.8078L86.6904 27.4627C86.506 26.5412 84.5708 23.8686 84.5708 23.8686Z" fill="#081669"/>
<path id="Path_18" d="M88.9942 19.2608L86.2295 25.8039C68.8119 20.3667 76.7374 12.1647 76.7374 12.1647C76.7374 12.1647 90.8374 7.92549 88.9942 19.2608Z" fill="#081669"/>
<path id="Path_19" d="M80.1472 22.3941L83.2805 26.2647L85.6766 21.749L80.1472 22.3941Z" fill="#03041F"/>
<path id="Path_20" d="M79.2256 12.9941C79.2256 12.9941 73.2354 14.0078 72.406 18.1549C72.406 18.1549 71.3923 13.6392 77.0138 11.6118C82.5433 9.49215 79.2256 12.9941 79.2256 12.9941Z" fill="#03041F"/>
<g id="Group_12">
<circle id="Oval_5" cx="86.2296" cy="25.1588" r="3.4098" fill="#ECACA1"/>
<path id="Path_21" d="M85.1237 26.449C85.1237 26.449 84.9394 23.9608 87.3355 24.1451" stroke="#1D0A05" stroke-width="0.585933" stroke-linecap="round" stroke-linejoin="round"/>
</g>
</g>
<g id="Group_13">
<path id="Path_22" d="M103.186 45.1568C103.186 45.1568 116.918 53.9117 119.037 80.3608C119.314 83.4941 117.102 86.1666 113.969 86.6274V86.6274C111.02 87.0882 107.241 85.2451 106.412 82.3882L97.1962 55.2019L103.186 45.1568Z" fill="#F8D44E"/>
<g id="Group_14">
<path id="Path_23" d="M75.4472 48.0137L65.4021 67.551C64.0197 70.6843 65.3099 74.2784 68.259 75.9372V75.9372C71.3923 77.596 75.355 76.398 77.0138 73.2647L88.257 54.3725C89.9158 51.3314 89.1786 47.6451 86.506 45.4333V45.4333C83.004 42.3921 77.3825 43.6823 75.4472 48.0137Z" fill="#F8D44E"/>
<g id="Group_15">
<g id="Group_16">
<circle id="Oval_6" cx="39.9668" cy="59.349" r="6.17451" fill="#ECACA1"/>
<path id="Path_24" d="M38.7688 53.3588C38.7688 53.3588 39.0453 50.8706 41.9943 52.1608C44.4825 53.2666 47.9845 57.1372 45.1276 62.5745L38.7688 53.3588Z" fill="#ECACA1"/>
<path id="Path_25" d="M58.3061 60.6392L44.6668 57.1372L41.6257 65.247L56.2786 69.3941L58.3061 60.6392Z" fill="#EDAC9F"/>
</g>
<path id="Path_26" d="M72.8668 65.1549L48.2609 56.7686L45.8649 68.2882L68.6276 76.3059C72.1296 77.7804 76.1845 75.6608 76.8296 71.8823V71.8823C77.4747 68.9333 75.7237 66.0764 72.8668 65.1549Z" fill="#F8D44E"/>
</g>
<g id="Group_17">
<path id="Path_27" d="M41.9943 60.3627L37.9394 63.6804C37.7551 63.8647 37.3864 63.7725 37.2943 63.4039L30.659 49.3961C30.4747 49.0274 30.5668 48.6588 30.7512 48.4745L34.8061 45.1568C34.9904 44.9725 35.359 45.0647 35.4512 45.4333L42.0864 59.4412C42.2708 59.7176 42.1786 60.0863 41.9943 60.3627Z" fill="#0F35A9"/>
<path id="Path_28" d="M42.7315 59.7176L38.4001 63.3117C38.1237 63.4961 37.8472 63.4039 37.6629 63.0353L31.1198 48.9353C30.9354 48.5666 31.0276 48.198 31.3041 48.0137L35.6354 44.4196C35.9119 44.2353 36.1884 44.3274 36.3727 44.6961L42.9158 58.7961C43.008 59.0725 43.008 59.5333 42.7315 59.7176Z" fill="#6C51F7"/>
</g>
<path id="Path_29" d="M43.6531 55.3863L43.7452 53.3588L40.4276 50.7784C39.9668 50.4098 39.2296 50.5019 38.8609 50.8706V50.8706C38.5845 51.147 38.4001 51.6078 38.9531 52.2529L43.3766 55.6627" fill="#ECACA1"/>
</g>
<g id="Group_18">
<path id="Path_30" d="M79.0413 46.447C77.0139 49.3039 73.6962 55.2019 73.6041 63.1274C73.6041 63.3117 73.6041 63.5882 73.6041 63.7725C73.7884 65.5235 73.2354 78.7019 72.959 85.5215C72.8668 87.2725 73.7884 90.6823 75.2629 91.5117C78.3962 93.2627 91.9433 94.8294 103.186 91.696C104.753 91.2353 105.675 89.5764 105.214 87.9176C104.016 83.7706 99.7766 73.9098 102.726 66.0764C109.822 47.3686 103.002 43.9588 98.0256 43.0372C97.3805 42.9451 94.9844 44.4196 94.3393 44.4196L82.5433 44.6039C81.1609 44.5117 79.8707 45.249 79.0413 46.447Z" fill="#FDD656"/>
<path id="Path_31" d="M77.106 51.7C77.106 51.7 73.1433 55.3863 73.6962 65.8C73.6962 65.8 73.4197 70.7764 73.4197 76.3059" stroke="#F3A12D" stroke-width="0.55"/>
</g>
<g id="Group_19">
<g id="Group_20">
<path id="Path_32" d="M91.6668 39.1667C91.6668 39.1667 96.1825 53.8196 111.296 55.5706C125.488 57.2294 124.014 53.0823 135.81 54.3725C135.81 54.3725 133.967 58.3353 127.147 64.9706C123.369 68.5647 123.553 71.2372 123.553 71.2372C123.553 71.2372 101.343 72.0666 92.5884 60.6392C86.3217 52.5294 84.8472 42.1157 84.8472 42.1157L91.6668 39.1667Z" fill="#FF5A4C"/>
<g id="Group_21">
<path id="Path_33" d="M137.93 58.0588C138.114 58.0588 138.39 57.8745 138.39 57.6902C138.39 57.4137 138.298 57.2294 138.022 57.1372L131.018 56.0314C130.741 56.0314 130.557 56.1235 130.465 56.4C130.465 56.6765 130.557 56.8608 130.833 56.9529L137.93 58.0588C137.837 58.0588 137.93 58.0588 137.93 58.0588Z" fill="#FF5A4C"/>
<path id="Path_34" d="M135.349 61.3764C135.533 61.3764 135.81 61.1921 135.81 61.0078C135.81 60.7314 135.718 60.547 135.441 60.4549L128.437 59.349C128.161 59.2568 127.977 59.4412 127.884 59.7176C127.884 59.9941 127.977 60.1784 128.253 60.2706L135.349 61.3764V61.3764Z" fill="#FF5A4C"/>
<path id="Path_35" d="M132.032 64.9706C132.216 64.9706 132.492 64.7863 132.492 64.6019C132.492 64.3255 132.4 64.1412 132.124 64.049L125.12 62.9431C124.843 62.9431 124.659 63.0353 124.567 63.3117C124.567 63.5882 124.659 63.7725 124.935 63.8647L132.032 64.9706C131.939 64.9706 131.939 64.9706 132.032 64.9706Z" fill="#FF5A4C"/>
<path id="Path_36" d="M128.898 69.2098C129.082 69.2098 129.359 69.0255 129.359 68.8412C129.359 68.5647 129.267 68.3804 128.99 68.2882L121.986 67.1823C121.71 67.0902 121.526 67.2745 121.433 67.551C121.433 67.8274 121.526 68.0117 121.802 68.1039L128.898 69.2098V69.2098Z" fill="#FF5A4C"/>
</g>
</g>
<path id="Path_37" d="M79.1335 37.4157C81.9903 37.9686 88.9021 38.8902 93.8786 35.0196C94.4315 34.5588 95.1688 34.7431 95.4452 35.3882L98.2099 42.3C98.3942 42.6686 98.3021 43.0372 98.0256 43.4059C96.2746 45.4333 89.0864 52.7137 78.5805 44.6039C78.3041 44.4196 78.2119 44.1431 78.2119 43.8667L77.9354 38.5216C77.9354 37.8765 78.4884 37.3235 79.1335 37.4157Z" fill="#FF6C58"/>
</g>
</g>
</g>
<g id="Group_22">
<g id="Group_23">
<g id="Group_24">
<ellipse id="Oval_7" cx="84.2942" cy="75.2608" rx="5.52941" ry="5.31378" fill="#ECACA1"/>
<path id="Path_38" d="M79.0413 74.0019C79.0413 74.0019 77.1982 72.3431 79.5021 70.6843C81.806 69.0255 85.7688 68.1039 89.0864 72.6196L79.0413 74.0019Z" fill="#ECACA1"/>
</g>
<path id="Path_39" d="M87.3354 72.5274L96.1825 74.3706L94.2472 81.4666L86.3217 79.2549L87.3354 72.5274Z" fill="#EDAC9F"/>
</g>
<path id="Path_40" d="M106.688 75.1078C106.135 74.9235 91.5747 72.6196 91.5747 72.6196L90.1002 82.849L112.771 86.7196L106.688 75.1078Z" fill="#F8D44E"/>
<path id="Path_41" d="M109.73 75.4764L91.5746 72.6196" stroke="#F3A12D" stroke-width="0.55"/>
<path id="Path_42" d="M104.292 85.0608L90.1923 82.849L90.4688 80.3608" stroke="#F3A12D" stroke-width="0.55"/>
</g>
</g>
<g id="Group_25">
<g id="Oval Copy 2" opacity="0.319987" filter="url(#filter1_f_0_619)">
<ellipse cx="29.0941" cy="193.485" rx="24.2695" ry="6.79545" fill="#FFA446"/>
</g>
<g id="dog">
<path id="Path_43" d="M21.3019 150.239C21.3019 150.239 61.7569 131.419 81.5161 79.6038" stroke="#372482" stroke-width="0.783978"/>
<ellipse id="Oval_8" cx="84.2943" cy="75.2608" rx="5.52941" ry="5.31378" fill="#ECACA1"/>
<g id="Group_26">
<path id="Path_44" d="M47.1059 178.255C48.4882 178.9 50.147 179.545 51.7137 180.006C53.2804 180.466 54.9392 180.743 56.5059 180.558C58.0725 180.466 59.4549 179.821 60.1921 178.531C61.0215 177.241 61.2059 175.49 61.1137 173.831V173.831C61.1137 173.555 61.298 173.37 61.5745 173.37C61.851 173.37 62.0353 173.555 62.0353 173.739C62.2196 174.66 62.3117 175.582 62.3117 176.504C62.3117 177.425 62.1274 178.439 61.7588 179.36C61.3902 180.282 60.6529 181.204 59.8235 181.757C58.9941 182.402 57.9804 182.77 56.9666 182.955C55.0313 183.415 53.0961 183.323 51.2529 183.047C49.4098 182.77 47.5666 182.402 45.7235 181.757C44.7098 181.388 44.1568 180.374 44.5255 179.36C44.8941 178.347 45.9078 177.794 46.9215 178.162C46.8294 178.162 46.9215 178.255 47.1059 178.255V178.255Z" fill="#AD4600"/>
<path id="Path_45" d="M36.5078 178.992C36.5078 178.992 33.3745 176.227 30.149 179.637C26.9235 183.047 36.9686 191.249 36.9686 191.249C36.9686 191.249 31.1627 190.511 30.0569 194.29H43.5118C44.0647 194.29 44.6176 193.829 44.6176 193.184V193.184C44.6176 192.17 44.249 191.249 43.6961 190.511L40.7471 186.825L36.5078 178.992Z" fill="#AB4600"/>
<path id="Path_46" d="M17.7078 171.343L13.1 191.433C13.1 191.433 9.32154 190.511 8.58429 194.29H14.9431L25.2647 174.66L17.7078 171.343Z" fill="#A94612"/>
<path id="Path_47" d="M17.9843 144.802L48.3961 178.715C49.8706 180.374 50.7 182.586 50.6078 184.89C50.5157 187.655 49.6863 190.88 46.5529 191.249C41.0235 191.986 35.1255 190.511 24.4353 180.098C24.4353 180.098 16.7863 177.886 15.4961 163.141L8.95294 153.833L17.9843 144.802Z" fill="#FF8149"/>
<path id="Path_48" d="M41.3 178.992C41.3 178.992 38.1667 176.227 34.9412 179.637C31.7157 183.047 41.7608 191.249 41.7608 191.249C41.7608 191.249 35.9549 190.511 34.849 194.29H48.3039C48.8569 194.29 49.4098 193.829 49.4098 193.184V193.184C49.4098 192.17 49.0412 191.249 48.4882 190.511L45.5392 186.825L41.3 178.992Z" fill="#FF8149"/>
<path id="Path_49" d="M17.9843 144.802C17.9843 144.802 16.2333 141.945 13.2843 141.945C11.4412 141.945 9.50588 142.406 7.20196 144.433C4.99019 146.46 0.566665 145.17 0.566665 145.17C0.566665 145.17 -1.18431 151.529 8.95294 153.741L17.9843 144.802Z" fill="#FF8149"/>
<path id="Path_50" d="M15.0353 142.406C15.0353 142.406 9.8745 147.935 12.7314 150.423C15.5882 152.911 16.6941 147.935 19.4588 146.553C19.4588 146.553 20.9333 144.802 18.7216 143.051C16.3255 141.208 15.0353 142.406 15.0353 142.406Z" fill="#5430B8"/>
<circle id="Oval_9" cx="1.38235" cy="146.382" r="1.38235" fill="#5430B8"/>
<path id="Path_51" d="M11.9019 158.533L10.3353 155.953C10.7961 155.953 18.0764 155.492 21.7627 149.041L23.5137 151.16C19.3666 158.533 12.547 158.533 11.9019 158.533Z" fill="#FED748"/>
<circle id="Oval_10" cx="9.55294" cy="144.553" r="0.552941" fill="#28233C"/>
<path id="Path_52" d="M20.5647 175.951L22.7765 191.433C22.7765 191.433 19.2745 191.064 18.8137 194.29H26.0941L28.4902 174.66L20.5647 175.951Z" fill="#FF8149"/>
<path id="Path_53" d="M20.0118 163.602C17.3392 168.947 20.5647 173.555 20.5647 173.555L21.2098 181.941" stroke="#AB4600" stroke-width="0.643162" stroke-linecap="round" stroke-linejoin="round"/>
<path id="Path_54" d="M36.5078 178.255C36.5078 178.255 33.0059 181.204 36.2314 186.457C38.2588 189.682 41.7608 191.341 41.7608 191.341" stroke="#AB4600" stroke-width="0.643162" stroke-linecap="round" stroke-linejoin="round"/>
<path id="Path_55" d="M27.4764 182.862L28.398 172.817" stroke="#AB4600" stroke-width="0.643162" stroke-linecap="round" stroke-linejoin="round"/>
</g>
</g>
</g>
</g>
<defs>
<filter id="filter0_f_0_619" x="56.5494" y="193.458" width="83.9108" height="13.0439" filterUnits="userSpaceOnUse" color-interpolation-filters="sRGB">
<feFlood flood-opacity="0" result="BackgroundImageFix"/>
<feBlend mode="normal" in="SourceGraphic" in2="BackgroundImageFix" result="shape"/>
<feGaussianBlur stdDeviation="1.31942" result="effect1_foregroundBlur_0_619"/>
</filter>
<filter id="filter1_f_0_619" x="2.1858" y="184.05" width="53.8166" height="18.8686" filterUnits="userSpaceOnUse" color-interpolation-filters="sRGB">
<feFlood flood-opacity="0" result="BackgroundImageFix"/>
<feBlend mode="normal" in="SourceGraphic" in2="BackgroundImageFix" result="shape"/>
<feGaussianBlur stdDeviation="1.31942" result="effect1_foregroundBlur_0_619"/>
</filter>
</defs>
</svg>
