<svg width="23" height="62" viewBox="0 0 23 62" fill="none" xmlns="http://www.w3.org/2000/svg">
<g id="tree copy 3">
<path id="Path" d="M20.2257 18.5041V18.5041C20.2257 18.5041 20.2257 18.4651 20.2257 18.5041C20.1859 18.4262 20.1461 18.3872 20.1063 18.3483C17.5581 15.076 18.3544 10.2844 18.5933 9.23257C18.5933 9.15465 18.6331 9.1157 18.6331 9.03779V8.99883V8.99883C18.7128 8.53136 18.7526 8.06389 18.7526 7.59642C18.7526 3.42813 15.2887 0 10.9888 0C6.72863 0 3.22496 3.38917 3.22496 7.59642C3.22496 8.06389 3.26478 8.53136 3.38422 8.99883V8.99883V9.03779C3.38422 9.1157 3.42404 9.15465 3.42404 9.23257C3.66292 10.3233 4.41939 15.1149 1.91109 18.3483C1.87128 18.3872 1.87128 18.4262 1.83146 18.4651C1.83146 18.4651 1.83146 18.4651 1.83146 18.5041V18.5041C0.676844 20.2182 0 22.2828 0 24.5033C0 30.4636 4.93698 35.2941 11.0286 35.2941C17.1202 35.2941 22.0572 30.4636 22.0572 24.5033C22.097 22.2828 21.4201 20.2182 20.2257 18.5041Z" fill="#FAB833"/>
<path id="Path_2" d="M11.0294 10.2904L11.02 60.5" stroke="white" stroke-width="0.754941"/>
<path id="Path_3" d="M4.84351 18.3593L11.02 27.1828" stroke="white" stroke-width="0.754941"/>
<path id="Path_4" d="M15.4872 11.8977L11.0754 17.1918" stroke="white" stroke-width="0.754941"/>
</g>
</svg>
