<svg width="51" height="53" viewBox="0 0 51 53" fill="none" xmlns="http://www.w3.org/2000/svg">
<g id="Group">
<g id="Group 52">
<circle id="Mask" cx="25.0962" cy="25.963" r="19.963" fill="#FF9060"/>
<mask id="mask0_0_174" style="mask-type:luminance" maskUnits="userSpaceOnUse" x="5" y="6" width="41" height="40">
<circle id="Mask_2" cx="25.0962" cy="25.963" r="19.963" fill="white"/>
</mask>
<g mask="url(#mask0_0_174)">
<g id="Group 2">
<path id="Fill 25" fill-rule="evenodd" clip-rule="evenodd" d="M14 45C14 45 22.3333 50 26 50C29 50 36 45 36 45C36 45 33.3368 34.4693 25.6256 36.0995C25.6256 36.0995 18 35 14 45Z" fill="#78ECF1"/>
<path id="Fill 26" fill-rule="evenodd" clip-rule="evenodd" d="M28.3156 27.9557L21.6025 29.0949L21.5408 37.2954C21.5408 37.2954 21.9261 39.4196 25.3971 39.4791C28.6732 39.5352 28.8913 37.1976 28.8913 37.1976L28.3156 27.9557" fill="#FFD3C5"/>
<path id="Fill 27" fill-rule="evenodd" clip-rule="evenodd" d="M21.5673 33.7549V33.7549L21.6024 29.0949L21.5673 33.7549M28.4826 30.6393L28.3156 27.9557L28.4826 30.6393" fill="#E5B4AD"/>
<path id="Fill 28" opacity="0.312988" fill-rule="evenodd" clip-rule="evenodd" d="M21.9114 33.7654C21.6948 33.7654 21.5709 33.7554 21.5673 33.7549L21.6024 29.0949L28.3156 27.9557L28.4826 30.6393C26.2909 33.5196 22.9785 33.7654 21.9114 33.7654" fill="#E49789"/>
<path id="Fill 29" fill-rule="evenodd" clip-rule="evenodd" d="M27.2271 12.4649C23.6683 11.1452 19.6817 12.7293 17.7995 16.0252C15.6888 19.7203 15 24.3983 15 28.8859H34.4007C34.4007 28.8859 34.0205 22.9661 33.1544 20.4659C32.5785 18.8047 31.8102 14.1649 27.2271 12.4649" fill="#172133"/>
<path id="Fill 30" fill-rule="evenodd" clip-rule="evenodd" d="M32.4983 24.2739C32.4983 24.9264 31.7049 25.8498 30.7944 25.5844C30.168 25.402 29.3661 24.9264 29.3661 24.2739C29.3661 23.6217 30.2802 22.9661 30.9322 22.9661C31.9849 22.9661 32.4983 23.6217 32.4983 24.2739" fill="#FFD3C5"/>
<path id="Fill 31" fill-rule="evenodd" clip-rule="evenodd" d="M31.3173 24.7578C31.3182 24.6154 31.3417 24.4752 31.3885 24.3405C31.438 24.2064 31.4899 24.07 31.639 23.9578C31.6729 23.9315 31.7338 23.9113 31.787 23.9113C31.8153 23.9139 31.8468 23.9159 31.8714 23.9252C31.8941 23.9369 31.917 23.9491 31.9377 23.9635C31.9777 23.9927 31.998 24.0276 32.0268 24.0598C32.0641 24.1144 32.0636 24.1608 32.066 24.2003C32.067 24.3566 32.0192 24.4881 31.959 24.6178C31.9429 24.4783 31.9346 24.3356 31.9099 24.2193C31.9026 24.192 31.8914 24.1674 31.8863 24.1671L31.8295 24.1205C31.7934 24.0981 31.7863 24.1064 31.7487 24.1269C31.6729 24.1756 31.5985 24.2971 31.5307 24.4061C31.4641 24.5205 31.3929 24.6378 31.3173 24.7578" fill="#EEA08E"/>
<path id="Fill 32" fill-rule="evenodd" clip-rule="evenodd" d="M16.9135 24.2739C16.9135 24.9264 17.7069 25.8498 18.6174 25.5844C19.2439 25.402 20.0456 24.9264 20.0456 24.2739C20.0456 23.6217 19.132 22.9661 18.4795 22.9661C17.4269 22.9661 16.9135 23.6217 16.9135 24.2739" fill="#FFD3C5"/>
<path id="Fill 33" fill-rule="evenodd" clip-rule="evenodd" d="M18.0946 24.7578C18.0188 24.6378 17.9475 24.5205 17.881 24.4061C17.8132 24.2971 17.739 24.1756 17.6629 24.1269C17.6254 24.1064 17.6183 24.0981 17.5822 24.1205L17.5254 24.1671C17.5202 24.1674 17.509 24.192 17.5017 24.2193C17.4771 24.3356 17.4688 24.4783 17.4527 24.6178C17.3924 24.4881 17.3446 24.3566 17.3456 24.2003C17.348 24.1608 17.3475 24.1144 17.3849 24.0598C17.4139 24.0276 17.4341 23.9927 17.4739 23.9635C17.4949 23.9491 17.5175 23.9369 17.5402 23.9252C17.5649 23.9159 17.5963 23.9139 17.6246 23.9113C17.678 23.9113 17.739 23.9315 17.7727 23.9578C17.9217 24.07 17.9736 24.2064 18.0232 24.3405C18.07 24.4752 18.0934 24.6154 18.0946 24.7578" fill="#EEA08E"/>
<path id="Fill 34" fill-rule="evenodd" clip-rule="evenodd" d="M30.9278 22.5752C31.0442 27.13 28.8883 31.4837 25.1435 31.5795C21.3988 31.6752 18.6944 27.7869 18.5778 23.232C18.4615 18.6774 20.9771 15.1805 24.7217 15.0849C28.4664 14.9891 30.8113 18.0203 30.9278 22.5752" fill="#FFD3C5"/>
<path id="Fill 39" fill-rule="evenodd" clip-rule="evenodd" d="M22.6554 22.8064C22.6493 23.0583 22.493 23.2593 22.3061 23.2547C22.1196 23.2503 21.973 23.042 21.9791 22.7898C21.9852 22.5376 22.1415 22.3369 22.3283 22.3415C22.5152 22.3461 22.6615 22.5542 22.6554 22.8064" fill="#172133"/>
<path id="Fill 40" fill-rule="evenodd" clip-rule="evenodd" d="M27.5274 22.8064C27.5213 23.0583 27.3647 23.2593 27.1781 23.2547C26.9913 23.2503 26.8449 23.042 26.851 22.7898C26.8571 22.5376 27.0135 22.3369 27.2003 22.3415C27.3871 22.3461 27.5335 22.5542 27.5274 22.8064" fill="#172133"/>
<path id="Fill 41" fill-rule="evenodd" clip-rule="evenodd" d="M23.3412 25.192C23.5787 25.4632 23.8212 25.7115 24.0861 25.9056C24.3517 26.0961 24.6402 26.2244 24.9314 26.2147C25.2236 26.2176 25.5175 26.0854 25.7978 25.9098C26.0778 25.7295 26.34 25.4998 26.6219 25.272C26.4775 25.6039 26.2724 25.9103 25.9966 26.1649C25.859 26.2932 25.7002 26.4022 25.5231 26.4905C25.3431 26.572 25.1424 26.6239 24.9353 26.6291C24.729 26.6281 24.5226 26.5805 24.3422 26.4932C24.1631 26.4025 24.0034 26.2871 23.8734 26.1478C23.6109 25.8744 23.4283 25.5449 23.3412 25.192" fill="#D1746F"/>
<path id="Fill 42" fill-rule="evenodd" clip-rule="evenodd" d="M24.5449 24.3352C24.6393 24.1915 24.7532 24.0793 24.8747 23.9781C24.9949 23.8749 25.1247 23.7871 25.2603 23.7091L25.2527 24.0764C25.1352 23.9874 25.0493 23.8815 24.9827 23.7715C24.9171 23.6605 24.8673 23.5488 24.833 23.4327C24.7615 23.203 24.732 22.9669 24.7598 22.7291C24.8905 22.9274 25.0037 23.1191 25.1232 23.2952C25.1866 23.38 25.2413 23.4681 25.3091 23.5381C25.3737 23.6093 25.4391 23.6722 25.5042 23.7142L25.7742 23.8883L25.4964 24.0815C25.3678 24.171 25.233 24.251 25.0883 24.3157C24.9452 24.382 24.7947 24.4374 24.6247 24.4613C24.5798 24.4676 24.5386 24.4364 24.532 24.3917L24.5449 24.3352" fill="#D1746F"/>
<path id="Fill 43" fill-rule="evenodd" clip-rule="evenodd" d="M18.4796 22.9662C18.4796 22.9662 19.764 21.4852 20.661 18.4001C21.5279 15.4193 23.0386 17.5486 26.282 17.5486C29.5254 17.5486 29.3662 16.3388 29.3662 16.3388C29.3662 16.3388 25.2859 11.7142 20.4476 15.6274C15.6093 19.5408 18.4796 22.9662 18.4796 22.9662" fill="#172133"/>
<path id="Fill 44" fill-rule="evenodd" clip-rule="evenodd" d="M28.6081 16.4744V16.4744C28.6081 16.4744 28.2142 19.7166 30.113 20.4905C30.7166 20.7364 30.5474 20.4856 30.9322 22.9661C30.9322 22.9661 32.1054 17.4195 28.6081 16.4744" fill="#172133"/>
</g>
</g>
</g>
</g>
</svg>
